<svg xmlns="http://www.w3.org/2000/svg" xmlns:xlink="http://www.w3.org/1999/xlink" width="500" zoomAndPan="magnify" viewBox="0 0 375 374.999991" height="500" preserveAspectRatio="xMidYMid meet" version="1.0"><defs><g/><clipPath id="49a5098b41"><path d="M 37.5 158.238281 L 98 158.238281 L 98 218.988281 L 37.5 218.988281 Z M 37.5 158.238281 " clip-rule="nonzero"/></clipPath><clipPath id="5e752b116d"><rect x="0" width="213" y="0" height="70"/></clipPath></defs><rect x="-37.5" width="450" fill="#ffffff" y="-37.499999" height="449.999989" fill-opacity="1"/><rect x="-37.5" width="450" fill="#ffffff" y="-37.499999" height="449.999989" fill-opacity="1"/><g clip-path="url(#49a5098b41)"><path fill="#ff7d1d" d="M 75.035156 158.261719 L 83.886719 161.921875 L 76.554688 179.605469 L 94.253906 172.28125 L 97.917969 181.121094 L 80.21875 188.445312 L 97.917969 195.769531 L 94.253906 204.609375 L 76.554688 197.285156 L 83.886719 214.964844 L 75.035156 218.625 L 67.707031 200.945312 L 60.375 218.625 L 51.527344 214.964844 L 58.855469 197.285156 L 41.160156 204.609375 L 37.492188 195.769531 L 55.191406 188.445312 L 37.492188 181.121094 L 41.160156 172.28125 L 58.855469 179.605469 L 51.527344 161.921875 L 60.375 158.261719 L 67.707031 175.941406 Z M 75.035156 158.261719 " fill-opacity="1" fill-rule="evenodd"/></g><g transform="matrix(1, 0, 0, 1, 121, 160)"><g clip-path="url(#5e752b116d)"><g fill="#000000" fill-opacity="1"><g transform="translate(1.004936, 50.885927)"><g><path d="M 5.890625 0 L 5.890625 -42.515625 L 26.25 -42.515625 C 29.070312 -42.515625 31.609375 -42.175781 33.859375 -41.5 C 36.117188 -40.832031 38.09375 -39.875 39.78125 -38.625 C 41.46875 -37.375 42.875 -35.875 44 -34.125 C 45.125 -32.375 45.960938 -30.421875 46.515625 -28.265625 C 47.078125 -26.109375 47.359375 -23.78125 47.359375 -21.28125 C 47.359375 -18.78125 47.078125 -16.445312 46.515625 -14.28125 C 45.960938 -12.113281 45.125 -10.15625 44 -8.40625 C 42.875 -6.65625 41.46875 -5.148438 39.78125 -3.890625 C 38.09375 -2.640625 36.117188 -1.675781 33.859375 -1 C 31.609375 -0.332031 29.070312 0 26.25 0 Z M 11.953125 -5 L 26.046875 -5 C 28.597656 -5 30.816406 -5.378906 32.703125 -6.140625 C 34.597656 -6.910156 36.164062 -8.007812 37.40625 -9.4375 C 38.644531 -10.863281 39.570312 -12.578125 40.1875 -14.578125 C 40.800781 -16.578125 41.109375 -18.8125 41.109375 -21.28125 C 41.109375 -23.738281 40.800781 -25.960938 40.1875 -27.953125 C 39.570312 -29.953125 38.644531 -31.664062 37.40625 -33.09375 C 36.164062 -34.53125 34.597656 -35.628906 32.703125 -36.390625 C 30.816406 -37.160156 28.597656 -37.546875 26.046875 -37.546875 L 11.953125 -37.546875 Z M 11.953125 -5 "/></g></g></g><g fill="#000000" fill-opacity="1"><g transform="translate(51.342175, 50.885927)"><g><path d="M 5.890625 0 L 5.890625 -42.515625 L 11.953125 -42.515625 L 11.953125 0 Z M 5.890625 0 "/></g></g></g><g fill="#000000" fill-opacity="1"><g transform="translate(69.184816, 50.885927)"><g><path d="M 23.640625 0.5625 C 21.296875 0.5625 19.09375 0.421875 17.03125 0.140625 C 14.976562 -0.140625 13.109375 -0.59375 11.421875 -1.21875 C 9.734375 -1.851562 8.265625 -2.691406 7.015625 -3.734375 C 5.765625 -4.785156 4.773438 -6.078125 4.046875 -7.609375 C 3.316406 -9.140625 2.890625 -10.953125 2.765625 -13.046875 L 8.984375 -13.046875 C 9.046875 -11.640625 9.347656 -10.425781 9.890625 -9.40625 C 10.429688 -8.382812 11.164062 -7.53125 12.09375 -6.84375 C 13.03125 -6.15625 14.101562 -5.601562 15.3125 -5.1875 C 16.53125 -4.769531 17.851562 -4.472656 19.28125 -4.296875 C 20.707031 -4.117188 22.1875 -4.03125 23.71875 -4.03125 C 25.320312 -4.03125 26.835938 -4.125 28.265625 -4.3125 C 29.691406 -4.5 30.992188 -4.800781 32.171875 -5.21875 C 33.347656 -5.632812 34.363281 -6.175781 35.21875 -6.84375 C 36.070312 -7.507812 36.726562 -8.316406 37.1875 -9.265625 C 37.65625 -10.222656 37.890625 -11.34375 37.890625 -12.625 C 37.890625 -13.726562 37.722656 -14.660156 37.390625 -15.421875 C 37.066406 -16.191406 36.601562 -16.828125 36 -17.328125 C 35.40625 -17.828125 34.691406 -18.226562 33.859375 -18.53125 C 33.023438 -18.832031 32.097656 -19.050781 31.078125 -19.1875 C 30.054688 -19.332031 28.960938 -19.425781 27.796875 -19.46875 C 26.628906 -19.507812 25.414062 -19.539062 24.15625 -19.5625 C 22.894531 -19.582031 21.59375 -19.609375 20.25 -19.640625 C 18.914062 -19.679688 17.585938 -19.765625 16.265625 -19.890625 C 14.953125 -20.023438 13.679688 -20.238281 12.453125 -20.53125 C 11.222656 -20.820312 10.082031 -21.222656 9.03125 -21.734375 C 7.988281 -22.242188 7.078125 -22.898438 6.296875 -23.703125 C 5.523438 -24.503906 4.921875 -25.488281 4.484375 -26.65625 C 4.046875 -27.820312 3.828125 -29.207031 3.828125 -30.8125 C 3.828125 -32.582031 4.132812 -34.144531 4.75 -35.5 C 5.375 -36.851562 6.257812 -38.007812 7.40625 -38.96875 C 8.550781 -39.925781 9.921875 -40.707031 11.515625 -41.3125 C 13.109375 -41.914062 14.878906 -42.359375 16.828125 -42.640625 C 18.785156 -42.929688 20.875 -43.078125 23.09375 -43.078125 C 26.03125 -43.078125 28.691406 -42.832031 31.078125 -42.34375 C 33.472656 -41.863281 35.535156 -41.117188 37.265625 -40.109375 C 39.003906 -39.097656 40.351562 -37.8125 41.3125 -36.25 C 42.28125 -34.6875 42.804688 -32.832031 42.890625 -30.6875 L 36.9375 -30.6875 C 36.863281 -31.882812 36.578125 -32.921875 36.078125 -33.796875 C 35.585938 -34.679688 34.921875 -35.429688 34.078125 -36.046875 C 33.234375 -36.660156 32.25 -37.148438 31.125 -37.515625 C 30 -37.890625 28.757812 -38.160156 27.40625 -38.328125 C 26.050781 -38.503906 24.617188 -38.59375 23.109375 -38.59375 C 21.597656 -38.59375 20.171875 -38.503906 18.828125 -38.328125 C 17.484375 -38.160156 16.257812 -37.894531 15.15625 -37.53125 C 14.050781 -37.164062 13.09375 -36.691406 12.28125 -36.109375 C 11.476562 -35.535156 10.859375 -34.828125 10.421875 -33.984375 C 9.992188 -33.140625 9.78125 -32.160156 9.78125 -31.046875 C 9.78125 -30.003906 9.960938 -29.128906 10.328125 -28.421875 C 10.691406 -27.710938 11.203125 -27.128906 11.859375 -26.671875 C 12.523438 -26.222656 13.316406 -25.875 14.234375 -25.625 C 15.160156 -25.375 16.175781 -25.191406 17.28125 -25.078125 C 18.394531 -24.960938 19.578125 -24.882812 20.828125 -24.84375 C 22.085938 -24.800781 23.390625 -24.765625 24.734375 -24.734375 C 26.054688 -24.691406 27.378906 -24.632812 28.703125 -24.5625 C 30.035156 -24.5 31.332031 -24.378906 32.59375 -24.203125 C 33.863281 -24.023438 35.066406 -23.765625 36.203125 -23.421875 C 37.347656 -23.078125 38.394531 -22.625 39.34375 -22.0625 C 40.300781 -21.5 41.128906 -20.789062 41.828125 -19.9375 C 42.535156 -19.09375 43.082031 -18.070312 43.46875 -16.875 C 43.851562 -15.6875 44.046875 -14.285156 44.046875 -12.671875 C 44.046875 -10.679688 43.722656 -8.945312 43.078125 -7.46875 C 42.429688 -5.988281 41.503906 -4.734375 40.296875 -3.703125 C 39.097656 -2.679688 37.660156 -1.859375 35.984375 -1.234375 C 34.304688 -0.609375 32.425781 -0.15625 30.34375 0.125 C 28.257812 0.414062 26.023438 0.5625 23.640625 0.5625 Z M 23.640625 0.5625 "/></g></g></g><g fill="#000000" fill-opacity="1"><g transform="translate(116.163441, 50.885927)"><g><path d="M 26.734375 0.5625 C 24.472656 0.5625 22.3125 0.347656 20.25 -0.078125 C 18.195312 -0.515625 16.28125 -1.160156 14.5 -2.015625 C 12.726562 -2.867188 11.125 -3.914062 9.6875 -5.15625 C 8.25 -6.40625 7.019531 -7.835938 6 -9.453125 C 4.976562 -11.066406 4.191406 -12.863281 3.640625 -14.84375 C 3.085938 -16.820312 2.8125 -18.96875 2.8125 -21.28125 C 2.8125 -23.59375 3.085938 -25.734375 3.640625 -27.703125 C 4.191406 -29.679688 4.976562 -31.476562 6 -33.09375 C 7.019531 -34.707031 8.25 -36.132812 9.6875 -37.375 C 11.125 -38.625 12.726562 -39.671875 14.5 -40.515625 C 16.28125 -41.367188 18.195312 -42.007812 20.25 -42.4375 C 22.3125 -42.875 24.472656 -43.09375 26.734375 -43.09375 C 29.003906 -43.09375 31.171875 -42.875 33.234375 -42.4375 C 35.304688 -42.007812 37.238281 -41.367188 39.03125 -40.515625 C 40.832031 -39.671875 42.460938 -38.625 43.921875 -37.375 C 45.378906 -36.132812 46.625 -34.707031 47.65625 -33.09375 C 48.6875 -31.476562 49.484375 -29.679688 50.046875 -27.703125 C 50.609375 -25.734375 50.890625 -23.59375 50.890625 -21.28125 C 50.890625 -18.96875 50.609375 -16.820312 50.046875 -14.84375 C 49.484375 -12.863281 48.6875 -11.066406 47.65625 -9.453125 C 46.625 -7.835938 45.378906 -6.40625 43.921875 -5.15625 C 42.460938 -3.914062 40.832031 -2.867188 39.03125 -2.015625 C 37.238281 -1.160156 35.304688 -0.515625 33.234375 -0.078125 C 31.171875 0.347656 29.003906 0.5625 26.734375 0.5625 Z M 26.734375 -4.453125 C 28.804688 -4.453125 30.765625 -4.679688 32.609375 -5.140625 C 34.453125 -5.597656 36.128906 -6.273438 37.640625 -7.171875 C 39.160156 -8.078125 40.472656 -9.207031 41.578125 -10.5625 C 42.679688 -11.914062 43.53125 -13.484375 44.125 -15.265625 C 44.726562 -17.054688 45.03125 -19.0625 45.03125 -21.28125 C 45.03125 -23.488281 44.726562 -25.476562 44.125 -27.25 C 43.53125 -29.03125 42.679688 -30.59375 41.578125 -31.9375 C 40.472656 -33.28125 39.160156 -34.398438 37.640625 -35.296875 C 36.128906 -36.203125 34.453125 -36.882812 32.609375 -37.34375 C 30.765625 -37.800781 28.804688 -38.03125 26.734375 -38.03125 C 24.679688 -38.03125 22.742188 -37.800781 20.921875 -37.34375 C 19.097656 -36.882812 17.4375 -36.203125 15.9375 -35.296875 C 14.445312 -34.398438 13.15625 -33.28125 12.0625 -31.9375 C 10.976562 -30.59375 10.140625 -29.03125 9.546875 -27.25 C 8.960938 -25.476562 8.671875 -23.488281 8.671875 -21.28125 C 8.671875 -19.0625 8.960938 -17.054688 9.546875 -15.265625 C 10.140625 -13.484375 10.976562 -11.914062 12.0625 -10.5625 C 13.15625 -9.207031 14.445312 -8.078125 15.9375 -7.171875 C 17.4375 -6.273438 19.097656 -5.597656 20.921875 -5.140625 C 22.742188 -4.679688 24.679688 -4.453125 26.734375 -4.453125 Z M 26.734375 -4.453125 "/></g></g></g><g fill="#000000" fill-opacity="1"><g transform="translate(168.599756, 50.885927)"><g><path d="M 36.125 0 L 32.25 -10.21875 L 11.359375 -10.21875 L 7.5 0 L 1.171875 0 L 18.015625 -42.515625 L 25.515625 -42.515625 L 42.359375 0 Z M 13.125 -14.921875 L 30.46875 -14.921875 L 22.078125 -37.078125 L 21.5 -37.078125 Z M 13.125 -14.921875 "/></g></g></g></g></g></svg>